<?xml version="1.0" encoding="utf-8"?>
<!-- Generator: Adobe Illustrator 25.2.3, SVG Export Plug-In . SVG Version: 6.00 Build 0)  -->
<svg version="1.1" id="Layer_1" xmlns="http://www.w3.org/2000/svg" xmlns:xlink="http://www.w3.org/1999/xlink" x="0px" y="0px"
	 viewBox="0 0 414 133.9" style="enable-background:new 0 0 414 133.9;" xml:space="preserve">
<style type="text/css">
	.st0{fill:#094891;}
	.st1{fill:#A9A18F;}
</style>
<g>
	<path class="st0" d="M161.1,92.8h1.6V107h-1.6V92.8z"/>
	<path class="st0" d="M171.6,92.8h1.5l9,11.4V92.8h1.6V107h-1.3l-9.2-11.7V107h-1.6L171.6,92.8L171.6,92.8z"/>
	<path class="st0" d="M191.4,104.9l1-1.2c1.5,1.3,2.9,2,4.9,2c1.9,0,3.2-1,3.2-2.4v0c0-1.3-0.7-2.1-3.7-2.7
		c-3.3-0.7-4.8-1.8-4.8-4.1v0c0-2.2,2-3.9,4.7-3.9c2.1,0,3.6,0.6,5,1.8l-0.9,1.2c-1.3-1.1-2.6-1.5-4.1-1.5c-1.9,0-3,1-3,2.3v0
		c0,1.3,0.7,2.1,3.9,2.8c3.2,0.7,4.6,1.9,4.6,4v0c0,2.4-2,4-4.9,4C194.9,107.2,193.1,106.5,191.4,104.9z"/>
	<path class="st0" d="M213.6,94.2h-4.8v-1.5H220v1.5h-4.8V107h-1.6V94.2z"/>
	<path class="st0" d="M227.5,92.8h1.6V107h-1.6V92.8z"/>
	<path class="st0" d="M241.3,94.2h-4.8v-1.5h11.2v1.5h-4.8V107h-1.6V94.2z"/>
	<path class="st0" d="M255,101v-8.3h1.6v8.2c0,3.1,1.6,4.8,4.4,4.8c2.6,0,4.3-1.6,4.3-4.7v-8.3h1.6v8.2c0,4.2-2.4,6.3-5.9,6.3
		C257.4,107.2,255,105.1,255,101z"/>
	<path class="st0" d="M278.9,94.2h-4.8v-1.5h11.2v1.5h-4.8V107h-1.6V94.2z"/>
	<path class="st0" d="M292.7,92.8h10.3v1.5h-8.7v4.9h7.8v1.5h-7.8v5h8.8v1.5h-10.4L292.7,92.8L292.7,92.8z"/>
</g>
<g>
	<path class="st1" d="M329.1,48.6c-5.3,2.5-6.2,11.6,2.1,11.6c16.9,0,30-17.6,46.5-17.6c0.7,0,9.7-0.6,10.9,2c0,0-3.2-7.1-12-7.1
		c-15.4,0-33.6,17.6-43.9,17.6C324,55.1,329.1,48.6,329.1,48.6z"/>
	<path class="st1" d="M323.1,63.2c0.2,7.9,3.3,10.9,11.4,10.9c18.4,0,30.9-19,52.3-19c0.9,0,6.7,0,8.5,2.1c0,0-1-7.8-12.4-7.8
		c-17.9,0-33.6,19-46.9,19C324.7,68.4,323.1,63.2,323.1,63.2z"/>
	<path class="st1" d="M324.5,77.5c0.6,3.4,6.2,8.3,13.8,8.3c20.9,0,33.6-17.9,49.5-17.9c6.5,0,7.7,0.8,9.2,3.6c0,0,2.2-9.7-9.2-9.7
		c-17.9,0-36,18.8-51,18.8C325.6,80.6,324.5,77.5,324.5,77.5z"/>
	<path class="st1" d="M329.7,87.1c5.6,11.3,21.7,11.8,30.8,7.2c8.6-4.3,26.6-18.1,28.6-12.2c1.2,3.7-9.9,21.2-28.4,21.2
		c-7.4,0-13.4-1.9-18-4.3c0,0,6.2,5,18.2,5c13.9,0,26-7.5,32.5-18.6c2-4.4,1.9-10.3-4.6-10.3C373.2,75,346.1,107,329.7,87.1z"/>
</g>
<path class="st0" d="M359.5,31.6c13.8,0,23.8,8.6,27.3,14.1c1.5,2.4,1.7,3.8,1.5,4.3c-0.4,0.9-1.3,1.3-2.7,1.3
	c-3.1,0-8.3-2.1-14.4-4.6c-3.5-1.4-7.5-3-11.4-4.4c-3.6-1.2-7.2-1.9-10.7-1.9c-13.3,0-20,8.2-20,8.2s6.3-3.8,12.8-3.8
	c8.2,0,16.9,3.5,25.4,6.8c7.6,3,14.8,5.8,20.8,5.8c2.7,0,4.5-0.7,5.4-2.1c1-1.5,0.8-3.8-0.6-6.7c-6.5-11.4-19.3-19.3-32.7-19.3
	c-20.7,0-30.9,16.7-30.9,16.7S339.3,31.6,359.5,31.6z"/>
<path class="st0" d="M382.5,90.9c-10.3,0-25.7-3.2-34.9-12.1l-0.5-0.5l0,0.6c0,0.1,0.5,6.6,8.1,10.9c7.9,4.5,14.4,6.4,22.1,6.4
	c0,0,0,0,0,0c0.6,0,1.2,0,1.9,0c9.1-0.2,14.1-10.8,14.1-10.8S388.4,90.9,382.5,90.9z"/>
<path class="st0" d="M386.1,77.4c-11,0-19.6-3.9-27.9-7.6c-7.9-3.6-15.4-6.9-24.5-6.9c-4.5,0-7.7,1.3-9.3,3.9
	c-2.4,3.8,0.2,10.8,0.2,10.8s-0.4-3.2,1.5-5.5c1.4-1.7,3.8-2.6,7.1-2.6c7,0,14,3.2,21.4,6.5c8.5,3.9,18.1,8.3,29.4,8.3
	c12.5,0,13.1-12.7,13.1-12.7S392.5,77.4,386.1,77.4z"/>
<path class="st0" d="M334.9,56c8.9,0,17.8,3.8,26.4,7.5C370,67.2,379,71,388.1,71c4.3,0,7.1-1.1,8.4-3.4c2.4-4.1-1.3-10.4-1.3-10.4
	s0.8,3.1-0.6,5c-0.9,1.2-2.5,1.8-4.8,1.8c-10.2,0-19.2-3.8-27.9-7.4c-8.4-3.5-17.1-7.2-26.6-7.2c-4.2,0-7.3,1.1-9.5,3.3
	c-3.6,3.6-2.9,10.4-2.9,10.4S323.3,56,334.9,56z"/>
<g>
	<rect x="357.9" y="120.6" class="st0" width="3.4" height="1"/>
	<rect x="357.9" y="117" class="st0" width="3.4" height="1"/>
	<rect x="357.9" y="113.4" class="st0" width="3.4" height="1"/>
	<rect x="357.9" y="109.8" class="st0" width="3.4" height="1"/>
	<rect x="357.9" y="106.2" class="st0" width="3.4" height="1"/>
	<rect x="357.9" y="83.5" class="st0" width="3.4" height="1"/>
	<rect x="357.9" y="79.9" class="st0" width="3.4" height="1"/>
	<rect x="357.9" y="68.5" class="st0" width="3.4" height="1"/>
	<rect x="357.9" y="64.9" class="st0" width="3.4" height="1"/>
	<rect x="357.9" y="53.8" class="st0" width="3.4" height="1"/>
	<rect x="357.9" y="50.2" class="st0" width="3.4" height="1"/>
	<rect x="357.9" y="40.1" class="st0" width="3.4" height="1"/>
	<rect x="357.9" y="36.5" class="st0" width="3.4" height="1"/>
	<rect x="357.9" y="32.9" class="st0" width="3.4" height="1"/>
	<rect x="357.9" y="26.7" class="st0" width="3.4" height="1"/>
	<rect x="357.9" y="23.1" class="st0" width="3.4" height="1"/>
	<rect x="357.9" y="19.5" class="st0" width="3.4" height="1"/>
	<rect x="357.9" y="15.9" class="st0" width="3.4" height="1"/>
	<rect x="357.9" y="12.3" class="st0" width="3.4" height="1"/>
	<rect x="357.9" y="101" class="st0" width="3.4" height="1"/>
	<rect x="357.9" y="97.3" class="st0" width="3.4" height="1"/>
	<rect x="357.9" y="93.7" class="st0" width="3.4" height="1"/>
</g>
<g>
	<path class="st0" d="M44.4,68.3v10.5h-1.1l-2.1-2.5c-2.3,2-5.7,2.9-8.8,2.9c-9,0-15.8-9.2-15.8-17.7c0-6.7,3.5-13,9.3-16.4
		c2-1.2,4.6-1.7,7-1.7c2.9,0,5.7,0.8,7.9,2.7l2-2.2H44v9.9h-1.5c-0.8-5.6-4.7-9.1-9.7-9.1c-3.3,0-5,0.7-6.8,3.5
		c-2.4,3.7-1.9,9.6-1.9,13.8c0,2.9-0.1,6.9,0.9,10.2c1,3.3,3.4,5.5,7.3,5.7c6.3,0.3,9.2-4.1,10.7-9.7L44.4,68.3L44.4,68.3z"/>
	<path class="st0" d="M59.8,60.7c0-1.3-2.5-1.8-3.4-1.8c-1.9,0-4.4,1-3.6,1.9c0.3,0.4,0.7,1.5,0.7,2.5c0,1.3-1.3,2.3-2.5,2.3
		c-1.4,0-2.7-0.8-2.7-2.4c0-3.9,5-5.3,8.1-5.3c2.2,0,4.6,0.4,6.6,1.4c1.4,0.7,1.9,1.5,1.9,3.1V76c0,0.7,0.6,1,1.2,1s1.4-0.8,1.8-1.2
		l0.6,0.7c-1.3,1.6-2.7,2.7-4.9,2.7c-2.3,0-3.7-1.4-4-3.6c-1.8,2.3-4.6,3.6-7.5,3.6c-3.1,0-5.3-1.7-5.3-5c0-6.1,8.2-7.4,12.8-7.1
		C59.8,67.1,59.8,60.7,59.8,60.7z M59.8,68.2c-3.2,0-7.4,0.4-7.4,4.6c0,2.3,0.9,3.9,3.3,3.9c1.8,0,3.1-1.4,3.7-3
		c0.3-0.8,0.4-1.7,0.4-2.7C59.8,71,59.8,68.2,59.8,68.2z"/>
	<path class="st0" d="M77.8,63.7c1.6-2.8,3.4-5.8,7.2-5.8c2,0,4.1,1,4.1,3.3c0,2-1.4,2.9-3.2,2.9c-1.2,0-2.5-1.1-2.5-2.4
		c0-0.2,0.1-0.5,0.1-0.8c0.2-0.8,0.2-1.1-0.4-1.1c-1,0-1.5,0.5-2.2,1.2c-1.9,1.9-3.2,4.7-3.2,11.4v4.8h4.6v1.3H69.3v-1.3h3V59.5
		h-3.4v-1.3c2.7,0.1,5.8-0.1,8.9-0.2C77.8,58,77.8,63.7,77.8,63.7z"/>
	<path class="st0" d="M99,62.8h0.1c1.6-3.2,3.9-4.9,7.6-4.9c6.8,0,6.2,4.8,6.2,9.8v9.5h3.2v1.3h-11.9v-1.3h3.2V68
		c0-4.8,0.5-8.2-2.9-8.2c-2.2,0-4.2,2.4-5,4.3C99,65.7,99,68,99,70.4v6.8h3.2v1.3H90.1v-1.3h3.5V59.5h-3.5v-1.3
		c2.6,0.1,5.7-0.1,8.9-0.2V62.8z"/>
	<path class="st0" d="M121.5,67.1v4.1c0,3.6,0.2,7,4.6,7c3.7,0,6.5-2.7,7.5-6.1h1.3c-1.3,5-4.9,7.2-9.8,7.2c-5.6,0-9.6-5.4-9.6-10.6
		c0-5.6,4.6-10.8,10.2-10.8c4.8,0,9.2,3.3,9.2,8.3c0,1.1-0.5,0.9-1.3,0.9L121.5,67.1L121.5,67.1z M129,65.9c0-3.4,0.9-7-3.7-7
		c-4.3,0-3.8,3.7-3.8,7H129z"/>
	<path class="st0" d="M149.1,75.5c2.4,0,4.2-0.4,5.6,1.6c0.8,1.1,1,2.4,1,3.7c0,6.6-5.5,9.6-11.5,9.6c-3.5,0-8.4-1.6-8.4-5.9
		c0-2,1.5-3.6,3.3-4.3c-2-0.8-3.3-2.4-3.3-4.7c0-3.1,1.9-4.5,4.6-5.2c-1.9-1.2-3.4-2.9-3.4-5.3c0-4.5,3.6-7.2,7.8-7.2
		c2.4,0,4.1,0.8,5.8,2.3c1-1.2,1.9-2.5,3.7-2.5c1.2,0,2.3,0.8,2.3,2.1c0,1.2-0.6,1.8-1.8,1.8s-1.7-1.7-2.1-1.7c-0.6,0-1,0.7-1.4,1.1
		c0.9,1,1.2,2.4,1.2,3.8c0,2.3-1.2,4.8-3.3,5.9c-2.1,1.2-4.7,0.8-6.9,0.8c-1.5,0-4.9,0.1-4.9,2.3c0,1.3,0.9,1.7,2,1.7L149.1,75.5
		L149.1,75.5z M141.1,80.3c-1.8,0-2,2.5-2,3.8c0,3.2,2.3,5,5.3,5c4.1,0,8-1.2,9.3-5.7c0.9-2.9-1.2-3.2-3.9-3.2H141.1z M141.9,68.1
		c0,1.8,0.8,2.6,2.7,2.6c2.2,0,2.9-0.5,2.9-2.6V61c0-1.7-1-2.1-2.7-2.1c-2.2,0-2.9,1-2.9,2.1V68.1z"/>
	<path class="st0" d="M156.9,78.5v-1.3h3.7V59.5h-3.7v-1.3c3,0.1,6.1-0.1,9.3-0.2v19.2h3.8v1.3L156.9,78.5L156.9,78.5z M163,51.6
		c-1.6,0-2.8-1.6-2.8-3.1c0-1.4,1.4-2.8,2.8-2.8c1.5,0,3,1.2,3,2.8C166.1,50.3,164.8,51.6,163,51.6z"/>
	<path class="st0" d="M175.8,67.1v4.1c0,3.6,0.2,7,4.6,7c3.7,0,6.5-2.7,7.5-6.1h1.3c-1.3,5-4.9,7.2-9.8,7.2c-5.6,0-9.6-5.4-9.6-10.6
		c0-5.6,4.6-10.8,10.2-10.8c4.8,0,9.2,3.3,9.2,8.3c0,1.1-0.5,0.9-1.3,0.9L175.8,67.1L175.8,67.1z M183.3,65.9c0-3.4,0.9-7-3.7-7
		c-4.3,0-3.8,3.7-3.8,7H183.3z"/>
	<path class="st0" d="M189.4,78.5v-1.3h5.1V45.5h-5.1v-1.3h15.7c5.6,0,13.7,0.9,13.7,8.2c0,5.2-5.4,7.5-9.8,8.1v0.1
		c5,0.4,11,3,11,8.8c0,4.5-3.1,6.9-6.7,8.1c-3.7,1.2-8.5,0.8-12.1,0.8L189.4,78.5L189.4,78.5z M201,60.1h4.6c3.9,0,6.3-1.8,6.3-7.6
		c0-8.2-4.5-6.8-10.9-7L201,60.1L201,60.1z M201,77.2h6.5c4.5,0,5.2-4.3,5.2-7.9c0-4.8-1.6-7.8-6.8-7.9H201L201,77.2L201,77.2z"/>
	<path class="st0" d="M232.4,57.9c5.8,0,10.8,5.1,10.8,10.8s-5,10.6-10.8,10.6c-5.8,0-10.8-4.8-10.8-10.6
		C221.6,62.9,226.6,57.9,232.4,57.9z M232.4,58.9c-5,0-4.7,4-4.7,9.8c0,6.7,0.1,9.5,4.7,9.5c4.6,0,4.7-2.9,4.7-9.5
		C237.1,62.9,237.4,58.9,232.4,58.9z"/>
	<path class="st0" d="M245.7,78.5h-0.8v-7.3h1.4c0.5,3.6,2.6,7.1,6.5,7.1c2.3,0,4.7-1.5,4.7-4.1s-2.4-2.8-5-3.2
		c-5.3-0.7-7.3-2.9-7.3-6.8c0-3.9,2.7-6.2,6.5-6.2c1.8,0,3.6,0.6,5,1.6l0.8-1.3h0.9v6h-1.3c-0.3-2.8-2.5-5.3-5.4-5.3
		c-2,0-4.1,1.2-4.1,3.5c0,1.5,0.3,2.1,4.9,2.9c4.7,0.8,7.3,1.6,7.3,6.9c0,4.9-2.7,7.1-7.3,7.1c-1.7,0-3.9-1-5.1-2.2L245.7,78.5z"/>
	<path class="st0" d="M267.4,71.7c0,4.9,1.1,6.5,4.5,6.5c3.7,0,6.1-2.6,7.1-6.1h1.2c-0.7,4.5-4.2,7.2-8.6,7.2
		c-6.2,0-10.4-5-10.2-11.1c0.1-2.5,1.5-5.9,3.4-7.6c2.1-1.8,4.4-2.6,7.2-2.6c3.1,0,7.6,1.4,7.6,5.2c0,1.4-1.1,3-2.6,3
		c-1.6,0-3.2-0.7-3.2-2.6c0-1.5,1.6-1.8,1.6-2.8c0-1.4-2.8-1.8-3.6-1.8c-5,0-4.6,5.1-4.6,8.7L267.4,71.7L267.4,71.7z"/>
	<path class="st0" d="M279.7,78.5v-1.3h3.4V45.5h-3.7v-1.3c3.1,0.1,6.2-0.2,9.2-0.8v19.3h0.1c1.3-3.1,3.9-4.9,7.4-4.9
		c2,0,5.6,0.7,6.1,3.1c0.5,2.5,0.5,5.7,0.5,8.2v7.9h3.2v1.3H294v-1.3h3.2V68c0-4.8,0.5-8.4-2.9-8.4c-2.2,0-4.2,2.5-5,4.4
		c-0.7,1.7-0.7,4-0.7,6.5v6.8h3.1v1.3L279.7,78.5L279.7,78.5z"/>
</g>
</svg>
