<svg xmlns="http://www.w3.org/2000/svg" height="800" width="1200" viewBox="-8.581785 -3.44815 74.37547 20.6889"><defs><clipPath id="a" clipPathUnits="userSpaceOnUse"><path d="M0 774h594V0H0z"/></clipPath><clipPath id="b" clipPathUnits="userSpaceOnUse"><path d="M395.691 698.903h162.176v39.098H395.691z"/></clipPath></defs><g clip-path="url(#a)" transform="matrix(.35278 0 0 -.35278 -139.5912 260.35)" fill="#365181"><path d="M476.1966 718.0482l-2.089-4.431h-1.889l-.201 4.431h-.072l-.92-4.431h-1.981l1.378 6.629h3.264l.05-3.81h.082l1.615 3.81h3.357l-1.374-6.629h-2.093l.957 4.431zm7.2337 2.198h3.021l.466-6.628h-2.169l-.028 1.173h-1.941l-.529-1.173h-2.036zm1.311-4.072l-.125 2.51h-.077l-1.221-2.51zm15.3465 2.5084h-1.452l.325 1.564h5.069l-.324-1.564h-1.453l-1.053-5.065h-2.168zm12.5857 1.5636h2.939l.647-3.957h.063l.823 3.957h2.058l-1.379-6.628h-2.935l-.553 4.052h-.073l-.844-4.052h-2.124z"/><g clip-path="url(#b)"><path d="M491.2337 720.2462h3.198c1.56 0 2.113-.867 2.113-1.691 0-1.25-1.053-1.614-1.574-1.709v-.093c.634-.08.92-.53.92-1.086 0-.434-.097-.883-.097-1.458 0-.227.043-.506.057-.591h-2.317c-.005.036-.034.255-.034.384 0 .556.152.946.152 1.554 0 .279-.111.547-.552.547h-.56l-.512-2.485h-2.174zm2.149-2.761c.613 0 .874.304.874.705 0 .327-.189.492-.632.492h-.545l-.249-1.197zm13.3956 2.761h2.167l-1.377-6.628h-2.169zm-109.7067 0h2.166l-1.052-5.065h2.12l-.309-1.563h-4.305zm25.0723 0h2.166l-.592-2.849h.055l1.92 2.849h2.308l-2.395-3.128 1.198-3.5h-2.306l-.899 2.944h-.054l-.612-2.944h-2.169zm11.2385-4.1429h-1.292l-.517-2.486h-2.168l1.379 6.629h2.167l-.517-2.487h1.293l.518 2.487h2.166l-1.378-6.629h-2.168zm15.2387 4.1429h4.554l-.325-1.564h-2.388l-.203-.976h2.165l-.327-1.565h-2.163l-.199-.96h2.497l-.328-1.563h-4.663zm-8.3062 0h4.555l-.325-1.564h-2.389l-.202-.976h2.165l-.328-1.565h-2.163l-.199-.96h2.497l-.328-1.563h-4.662zm-33.4061.0898c1.613 0 2.482-.91 2.482-2.34 0-1.74-.899-4.471-3.74-4.471-1.569 0-2.483.867-2.483 2.328 0 1.925.995 4.483 3.741 4.483m-1.027-5.154c.95 0 1.356 2.368 1.356 2.914 0 .296-.134.583-.561.583-.982 0-1.359-2.413-1.359-2.91 0-.474.302-.587.564-.587m51.4233 5.0642h2.454c2.093 0 2.959-1.171 2.959-2.468 0-2.463-1.551-4.16-4.152-4.16h-2.643zm1.109-5.065h.632c.879 0 1.49 1.159 1.49 2.59 0 .516-.233.911-1.007.911h-.387zm-40.7556.9221c-.362-1.783-1.671-2.577-3.192-2.577-1.604 0-2.48.902-2.48 2.329 0 1.67.85 4.481 3.745 4.481 1.325 0 2.384-.491 2.351-1.903-.005-.204-.048-.539-.066-.674h-2.018c.007.041.044.226.044.419 0 .374-.275.5-.531.5-.989 0-1.367-2.383-1.367-2.918 0-.4.232-.579.554-.579.331 0 .641.257.904.922zm108.4299-.5009c-.184-.186-.184-.185 0 0"/><path d="M542.6368 722.7581l6.709-.169-7.968-4.509c.435 1.604.823 3.066 1.259 4.678m-.037 7.886l-1.161-6.083h-5.517zm15.268-6.083h-14.722c1.931 7.271 3.679 13.439 3.679 13.439s-6.628-7.087-12.512-13.439l-58.354-.122c.003 0 .024 0 .061-.001l-.061.001 56.906-1.435c-4.377-4.655-6.684-7.31-6.776-7.402l.022.021c.187.168 8.066 7.348 8.066 7.348l6.925-.174-1.042-5.463-32.451-18.359c-.08-.044-.126-.069-.13-.073 0 0 25.768 13.54 32.274 16.83 0 0-2.284-11.917-2.284-11.969 0 .003.002.011.004.023l-.004-.023.029.117c.208.777 1.578 5.461 3.438 12.398 8.469 4.32 16.932 8.283 16.932 8.283"/></g></g></svg>