<svg version="1.1" id="Layer_1" xmlns="http://www.w3.org/2000/svg" xmlns:xlink="http://www.w3.org/1999/xlink" x="0px" y="0px"
	 width="100%" viewBox="0 0 2987 1680" enable-background="new 0 0 2987 1680" xml:space="preserve">
<path fill="#FFFFFF" opacity="1.000000" stroke="none" 
	d="
M1924.000000,1682.000000 
	C1282.666626,1682.000000 642.333313,1682.000000 2.000000,1682.000000 
	C2.000000,1122.000000 2.000000,562.000000 2.000000,2.000000 
	C998.000000,2.000000 1994.000000,2.000000 2990.000000,2.000000 
	C2990.000000,562.000000 2990.000000,1122.000000 2990.000000,1682.000000 
	C2635.000000,1682.000000 2280.000000,1682.000000 1924.000000,1682.000000 
M1474.782349,815.009155 
	C1474.782349,815.009155 1475.205566,814.565002 1477.481934,815.339417 
	C1478.218140,815.656189 1478.954468,815.972961 1479.374512,817.876404 
	C1473.658813,837.625732 1467.943115,857.375061 1462.029541,877.808594 
	C1475.175659,877.808594 1487.366211,877.808594 1500.042725,877.808594 
	C1510.864868,838.624451 1522.262451,799.898010 1532.741577,760.182373 
	C1511.694824,760.182373 1492.123047,760.182373 1472.057129,760.182373 
	C1466.676880,770.956787 1461.451660,781.713989 1455.961060,792.334106 
	C1450.460571,802.973450 1445.815430,814.113037 1439.493530,824.292969 
	C1438.824097,824.045715 1438.154663,823.798462 1437.485229,823.551208 
	C1438.552979,802.469727 1439.620605,781.388184 1440.698975,760.095825 
	C1420.437134,760.095825 1401.481201,760.095825 1381.697144,760.095825 
	C1370.752197,799.123291 1359.820312,838.104309 1348.678833,877.832520 
	C1361.170776,877.832520 1372.641724,877.832520 1384.600830,877.832520 
	C1387.026733,869.357300 1389.423828,861.087219 1391.757568,852.799255 
	C1394.103394,844.468384 1396.215210,836.067566 1398.746338,827.794250 
	C1401.123901,820.022339 1402.272217,811.751709 1407.649780,804.996338 
	C1407.057739,829.171509 1406.465576,853.346619 1405.864014,877.911804 
	C1418.063110,877.911804 1428.951050,877.911804 1440.257812,877.911804 
	C1451.405029,857.807434 1462.525269,837.751709 1474.523804,817.325134 
	C1475.036987,816.755432 1475.050049,816.174438 1474.782349,815.009155 
M2384.702881,837.458313 
	C2384.702881,837.458313 2384.904785,836.557251 2386.178223,836.181885 
	C2400.659912,822.663391 2415.141602,809.144897 2430.559814,794.877380 
	C2432.159912,793.209290 2433.760010,791.541199 2436.336426,789.123718 
	C2436.894287,788.524841 2437.451904,787.925964 2439.122559,786.976440 
	C2440.565186,785.954712 2442.008057,784.932922 2444.202637,782.906677 
	C2445.449219,781.805786 2446.695801,780.704956 2449.225098,779.444214 
	C2452.313232,776.394714 2455.401611,773.345276 2459.477295,769.867126 
	C2460.463135,768.844299 2461.448975,767.821472 2463.724854,766.356445 
	C2467.230225,762.946594 2470.735840,759.536743 2475.120361,755.826050 
	C2475.695068,755.498230 2476.053711,755.011292 2477.495850,753.912781 
	C2489.007080,743.283997 2500.518311,732.655151 2513.387695,721.226074 
	C2513.724121,720.822449 2514.060547,720.418762 2514.228516,720.356201 
	C2514.228516,720.356201 2514.243896,720.115295 2515.475586,719.432312 
	C2517.786621,717.176819 2520.097656,714.921326 2523.367920,712.491699 
	C2523.367920,712.491699 2523.993164,711.743896 2525.781982,711.609192 
	C2530.564453,711.557434 2535.347168,711.505676 2541.601074,712.045227 
	C2548.560059,712.212036 2555.518555,712.443604 2562.478516,712.531067 
	C2573.709717,712.672119 2584.942383,712.718201 2597.923096,713.249329 
	C2603.986816,713.349915 2610.050537,713.450439 2617.528320,714.069580 
	C2623.620605,714.009033 2629.713135,713.948486 2637.338867,714.205383 
	C2638.898438,714.138306 2640.458008,714.071228 2643.251709,714.568176 
	C2645.355713,715.307678 2647.459717,716.047241 2649.173096,717.389404 
	C2648.954346,717.852661 2648.943848,718.320557 2648.285645,719.893921 
	C2648.013428,722.661499 2647.741211,725.429138 2646.743896,729.368408 
	C2646.636719,730.272705 2646.529785,731.177002 2645.801514,733.205383 
	C2645.262695,736.778748 2644.723877,740.352173 2643.777832,745.261230 
	C2643.371826,747.536011 2642.965820,749.810730 2641.864502,753.253540 
	C2641.263672,757.487915 2640.662842,761.722351 2639.604736,767.111450 
	C2639.456787,768.337219 2639.309082,769.562988 2638.269531,771.996033 
	C2636.531738,782.052429 2634.793945,792.108887 2632.478516,803.551880 
	C2632.442139,804.051208 2632.406006,804.550598 2631.314941,805.860168 
	C2624.794434,809.834412 2618.274170,813.808655 2611.910156,817.960388 
	C2611.910156,817.960388 2611.846680,817.732605 2610.695801,817.760803 
	C2609.442871,818.580688 2608.189697,819.400574 2605.631836,820.619507 
	C2604.469727,821.327698 2603.307617,822.035889 2600.976074,822.904114 
	C2599.729004,823.778564 2598.481934,824.652954 2596.094482,825.781799 
	C2595.465088,826.221191 2594.835938,826.660645 2592.910156,827.287170 
	C2589.534912,829.259949 2586.159912,831.232727 2581.803711,833.456482 
	C2581.241699,833.821350 2580.679688,834.186279 2578.875977,834.649902 
	C2576.487305,836.138306 2574.098633,837.626648 2570.359619,839.543091 
	C2569.562256,840.033936 2568.765137,840.524780 2567.202393,840.930969 
	C2566.673584,841.386292 2566.144775,841.841614 2564.517578,842.638306 
	C2564.256348,842.918884 2563.995117,843.199524 2562.483887,843.579651 
	C2561.489258,844.281433 2560.494873,844.983215 2558.433594,845.851074 
	C2557.567383,846.465942 2556.701172,847.080750 2554.629883,847.736267 
	C2554.019043,848.221741 2553.408203,848.707214 2552.258057,849.271423 
	C2552.258057,849.271423 2551.931152,849.707581 2550.729492,849.769714 
	C2550.147461,850.282715 2549.565674,850.795715 2548.361572,851.406250 
	C2548.361572,851.406250 2547.938232,851.872192 2546.611084,851.938416 
	C2544.800293,853.127441 2542.989258,854.316467 2540.061035,855.733582 
	C2539.428223,856.139526 2538.795410,856.545471 2537.022705,857.086121 
	C2535.818604,857.939270 2534.614258,858.792358 2532.035645,859.986572 
	C2428.144775,915.494934 2324.251953,970.999329 2220.364502,1026.514038 
	C2192.938232,1041.169800 2165.528809,1055.857178 2136.788818,1070.918579 
	C2113.844727,1083.261108 2090.900879,1095.603638 2066.537109,1108.149780 
	C2059.064209,1112.145996 2051.591309,1116.142212 2042.685303,1120.244751 
	C2032.975830,1125.489136 2023.266235,1130.733398 2013.556763,1135.977783 
	C2013.887817,1136.624268 2014.218994,1137.270752 2014.550171,1137.917358 
	C2024.423706,1133.056519 2034.902466,1129.514404 2045.450806,1122.433838 
	C2053.044434,1118.643188 2060.637939,1114.852539 2069.679443,1110.536377 
	C2091.728760,1099.881714 2113.794922,1089.261719 2135.802246,1078.520874 
	C2138.084717,1077.406860 2140.017334,1075.575317 2143.564209,1073.820190 
	C2153.507080,1069.253784 2163.527588,1064.848633 2173.379395,1060.093384 
	C2220.746582,1037.230713 2268.070801,1014.279114 2315.405518,991.348938 
	C2414.868164,943.166626 2514.326172,894.973938 2613.798096,846.810120 
	C2616.884033,845.315857 2620.102295,844.094421 2624.611084,842.168030 
	C2623.773682,847.164673 2623.291992,850.398560 2622.684814,853.608643 
	C2616.558594,885.976624 2610.411865,918.340759 2603.835693,950.768127 
	C2603.835693,950.768127 2603.672363,951.348572 2603.672363,951.348572 
	C2603.672363,951.348572 2604.134766,951.736816 2603.676025,952.974915 
	C2603.513672,954.278870 2603.351562,955.582764 2602.253418,958.042480 
	C2598.396240,977.868835 2594.538818,997.695190 2589.775635,1018.915833 
	C2587.505615,1027.211426 2586.933350,1032.643921 2589.024414,1038.255249 
	C2590.572998,1031.398804 2592.121582,1024.542480 2593.973145,1016.260315 
	C2594.312012,1014.983826 2594.655518,1013.708557 2594.989014,1012.430664 
	C2599.396729,995.537048 2603.803223,978.643127 2608.971924,960.427612 
	C2609.534424,957.954895 2610.096924,955.482178 2611.610107,952.013428 
	C2611.772949,950.669434 2611.935791,949.325439 2612.597900,947.125427 
	C2612.882568,946.509216 2612.991455,945.863403 2613.747803,944.318115 
	C2613.789307,943.540283 2613.830811,942.762390 2614.447510,940.628296 
	C2623.367920,908.557251 2632.670166,876.584595 2640.969727,844.353699 
	C2643.371826,835.025757 2648.009766,829.959473 2656.540771,825.862793 
	C2751.980957,780.031799 2847.233154,733.810181 2942.516846,687.653931 
	C2944.657471,686.616821 2946.571777,685.112549 2948.867188,683.650757 
	C2947.758057,682.913513 2947.521240,682.618530 2947.284668,682.618408 
	C2862.312988,682.563232 2777.341064,682.530273 2692.369385,682.473877 
	C2691.056396,682.472961 2689.741211,682.201355 2688.431641,682.022461 
	C2688.109375,681.978455 2687.724365,681.880310 2687.515137,681.664673 
	C2687.307617,681.450500 2687.284912,681.056946 2686.786377,679.545166 
	C2708.104004,602.320129 2729.702148,524.079163 2751.300293,445.838135 
	C2750.372070,445.217712 2749.443848,444.597321 2748.515625,443.976898 
	C2747.764893,445.485504 2747.322510,447.282684 2746.219238,448.461212 
	C2675.635254,523.862244 2604.947998,599.166565 2534.467773,674.664001 
	C2529.318848,680.179504 2524.209961,682.668884 2516.478516,682.651001 
	C2409.180176,682.403015 2301.880859,682.498108 2194.581787,682.510742 
	C1988.315063,682.534912 1782.048218,682.560059 1574.299683,682.006470 
	C1551.623047,682.137756 1528.946289,682.269104 1504.397339,682.013916 
	C1495.882446,682.013916 1487.367554,682.013916 1478.852539,682.013916 
	C1478.856567,682.554565 1478.860596,683.095154 1478.864746,683.635803 
	C1487.994995,683.635803 1497.125244,683.635803 1508.011353,683.787476 
	C1513.606445,684.145264 1519.197266,684.705139 1524.797363,684.823059 
	C1541.930542,685.183716 1559.067017,685.374451 1578.032104,685.797485 
	C1884.358765,694.060669 2190.685303,702.323853 2497.011963,710.587036 
	C2497.363525,711.400757 2497.715332,712.214539 2498.066895,713.028259 
	C2478.154297,734.716248 2457.857910,756.056885 2436.497070,778.013306 
	C2433.596680,781.596619 2430.696533,785.179932 2426.811279,789.360962 
	C2426.374268,789.980591 2425.937500,790.600220 2424.237793,791.726257 
	C2413.669922,802.957458 2403.053223,814.143127 2392.564697,825.447937 
	C2389.489990,828.762024 2386.779297,832.414001 2382.687500,836.212036 
	C2382.099854,836.805481 2381.512207,837.398987 2379.696045,838.207031 
	C2375.996582,842.008728 2372.297119,845.810425 2368.597656,849.612122 
	C2369.309082,850.292053 2370.020752,850.971985 2370.732422,851.651917 
	C2375.206055,847.167969 2379.679688,842.684082 2384.702881,837.458313 
M539.850037,794.580811 
	C542.955627,783.303833 546.061218,772.026917 549.257385,760.420959 
	C535.365234,760.420959 522.882202,760.420959 510.631378,760.420959 
	C502.668793,781.456970 478.656860,870.359680 478.912231,877.972900 
	C491.137848,877.972900 503.373840,877.972900 516.329163,877.972900 
	C521.082825,861.345520 525.813477,844.798523 530.544189,828.251465 
	C531.065979,828.206299 531.587769,828.161133 532.109619,828.115967 
	C536.222595,844.703613 540.335571,861.291199 544.563904,878.344177 
	C558.598694,878.125305 571.969727,878.500488 586.172607,878.099548 
	C580.902710,858.898987 576.338379,841.206482 571.084229,823.721375 
	C569.321594,817.855469 570.357849,813.855469 574.301208,809.368408 
	C585.941284,796.123657 597.170593,782.517212 608.513062,769.012329 
	C610.552795,766.583740 612.366211,763.964966 615.486328,759.847534 
	C602.799255,759.847534 591.965637,760.167236 581.164673,759.712524 
	C575.774658,759.485657 572.735229,761.641357 569.674744,765.728638 
	C560.964966,777.360657 551.807312,788.657227 541.391541,798.004822 
	C540.817261,797.388428 540.242920,796.772095 539.850037,794.580811 
M2203.008789,815.777100 
	C2201.292236,797.359619 2199.575684,778.942200 2197.851074,760.440247 
	C2179.429932,760.440247 2161.979004,760.440247 2144.299805,760.440247 
	C2133.306396,799.701843 2122.450439,838.471924 2111.430908,877.826660 
	C2125.185791,877.826660 2137.362549,877.826660 2149.947510,877.826660 
	C2153.366455,865.692261 2156.671875,853.876160 2160.030762,842.075317 
	C2161.848145,835.689697 2163.741211,829.325439 2165.629639,822.960266 
	C2166.537842,819.900330 2168.221436,818.406555 2172.127686,820.722961 
	C2172.709229,829.509460 2173.322021,838.767212 2173.142822,848.878418 
	C2173.524902,850.584595 2173.906738,852.290771 2174.567627,855.582703 
	C2174.943359,861.032776 2175.319336,866.482849 2174.977295,872.607361 
	C2175.291992,873.749756 2175.606934,874.892090 2176.783447,877.566589 
	C2194.309082,877.566589 2211.834961,877.566589 2229.648682,877.566589 
	C2240.563232,838.523865 2251.415039,799.704712 2262.378906,760.484985 
	C2249.009033,760.484985 2237.179199,760.484985 2225.228516,760.484985 
	C2219.543213,780.162354 2214.017334,799.287109 2207.188477,818.485901 
	C2205.937988,818.169067 2204.687744,817.852173 2203.008789,815.777100 
M1804.956055,759.856140 
	C1789.100586,759.856140 1773.245117,759.856140 1757.443359,759.856140 
	C1746.240112,799.805420 1735.400757,838.457458 1724.365967,877.806152 
	C1737.963135,877.806152 1750.513062,877.806152 1763.666138,877.806152 
	C1767.853027,863.250671 1772.037109,848.705261 1776.264404,834.009583 
	C1779.543823,834.009583 1781.854980,833.932312 1784.159546,834.023132 
	C1793.375488,834.386292 1795.935059,837.203308 1794.742310,846.599182 
	C1793.863892,853.519165 1792.175049,860.332947 1791.137329,867.237671 
	C1790.624390,870.650452 1790.766235,874.161682 1790.599976,877.891113 
	C1805.132690,877.891113 1818.334229,877.891113 1831.231445,877.891113 
	C1832.813843,866.333069 1834.526001,855.227051 1835.802368,844.071167 
	C1836.868652,834.749756 1834.783447,826.773438 1824.837158,822.998901 
	C1824.007080,822.683899 1823.391357,821.804199 1822.718628,821.223633 
	C1827.903564,818.770874 1833.280029,816.957764 1837.844604,813.923401 
	C1848.944092,806.544922 1853.047241,795.621887 1850.945801,782.727600 
	C1848.931763,770.369080 1840.567017,763.575134 1828.744629,761.454895 
	C1821.608032,760.175049 1814.212646,760.338379 1804.956055,759.856140 
M724.321289,775.032227 
	C721.652222,784.589600 718.983093,794.146912 716.414734,803.343750 
	C708.426880,803.343750 701.377075,803.343750 693.554260,803.343750 
	C697.600403,788.532227 701.391235,774.655396 705.281372,760.415039 
	C691.386292,760.415039 678.897522,760.415039 666.021362,760.415039 
	C655.175415,799.679321 643.773193,838.325500 633.285767,877.975464 
	C647.109924,877.975464 659.346924,877.975464 672.211487,877.975464 
	C676.479065,863.333984 680.716370,848.796326 684.877258,834.520691 
	C692.756531,834.520691 699.604858,834.520691 707.528320,834.520691 
	C703.495239,849.202515 699.660095,863.164001 695.687500,877.625610 
	C709.367004,877.625610 722.156189,877.625610 735.033691,877.625610 
	C746.036072,838.339355 756.868652,799.659607 767.844482,760.468445 
	C754.241760,760.468445 741.445496,760.468445 728.608093,760.468445 
	C727.223755,765.183838 726.007996,769.324951 724.321289,775.032227 
M1112.450439,875.556885 
	C1113.875366,876.465759 1115.296021,878.156494 1116.725830,878.164368 
	C1134.052612,878.259399 1151.463867,879.168274 1168.692627,877.816650 
	C1218.300171,873.924988 1240.041504,835.479797 1239.794922,798.788208 
	C1239.683105,782.154236 1231.059814,770.486572 1215.566406,764.270081 
	C1211.578735,762.669983 1207.280151,760.966248 1203.094849,760.888306 
	C1183.856201,760.529907 1164.607056,760.730408 1144.757080,760.730408 
	C1134.128418,798.381592 1123.469971,836.138611 1112.450439,875.556885 
M286.463501,800.361938 
	C286.431274,797.037170 286.605194,793.695312 286.331390,790.390564 
	C285.093994,775.456604 275.827942,763.823914 261.258057,760.344604 
	C236.832886,754.511841 214.741928,759.576660 196.995804,777.747009 
	C178.637970,796.543640 170.929626,819.963562 171.606079,845.962891 
	C172.052612,863.124817 181.860977,874.780579 198.767273,878.315186 
	C224.185013,883.629089 246.387039,877.225342 263.760071,857.473511 
	C277.610229,841.726929 284.361481,822.787903 286.463501,800.361938 
M1664.520996,759.840332 
	C1648.574951,759.840332 1632.629028,759.840332 1616.519531,759.840332 
	C1594.502075,799.146790 1572.764038,837.954163 1550.451904,877.786621 
	C1563.668457,877.786621 1575.471069,877.786621 1587.322998,877.786621 
	C1591.121582,870.831360 1594.742920,864.200439 1598.042847,858.157959 
	C1610.105225,858.157959 1621.004150,858.157959 1632.717773,858.157959 
	C1632.717773,865.029114 1632.717773,871.439880 1632.717773,877.685791 
	C1646.050171,877.685791 1658.546509,877.685791 1671.230835,877.685791 
	C1671.392212,875.392151 1671.607910,873.747620 1671.608765,872.103027 
	C1671.628296,837.448853 1671.625122,802.794617 1671.618530,768.140442 
	C1671.618286,766.476257 1671.614502,764.807373 1671.497437,763.148804 
	C1671.264893,759.855469 1668.786743,759.910645 1664.520996,759.840332 
M424.102386,833.866882 
	C413.170502,833.866882 402.238617,833.866882 393.133789,833.866882 
	C388.172455,839.551025 385.041718,844.531921 380.612274,847.693604 
	C377.924011,849.612549 372.977173,849.708435 369.500244,848.827087 
	C365.546204,847.825012 364.745392,843.488586 365.238098,839.655273 
	C367.211517,824.301514 371.318848,809.596191 380.292023,796.759033 
	C382.475250,793.635742 385.777222,790.761963 389.211426,789.157043 
	C396.259949,785.862915 401.724945,789.757385 401.894409,797.487915 
	C401.941772,799.648254 401.901611,801.810547 401.901611,803.749329 
	C414.224670,803.749329 425.724396,803.749329 437.491394,803.749329 
	C438.263184,799.255066 439.195038,795.371765 439.559265,791.435974 
	C440.992126,775.950928 433.636841,764.466675 418.550354,760.666748 
	C393.619446,754.387207 370.612823,758.498291 352.098877,777.332520 
	C333.393158,796.361755 325.538940,820.129333 326.091644,846.477173 
	C326.428894,862.554565 336.309113,873.965515 351.931732,878.046204 
	C365.189301,881.509216 378.377319,880.711548 391.261749,876.150208 
	C409.097229,869.835938 420.722015,857.319763 426.949982,839.623779 
	C427.649414,837.636414 429.481415,835.224670 424.102386,833.866882 
M842.100037,759.848389 
	C837.253479,759.528931 837.194214,763.485291 836.339233,766.510986 
	C826.472656,801.425903 816.650574,836.353455 806.888733,871.297791 
	C806.315918,873.348389 806.359985,875.571289 806.112061,877.756714 
	C834.350403,877.756714 861.852539,877.756714 889.658691,877.756714 
	C892.150513,868.510071 894.510376,859.752686 897.136536,850.007568 
	C881.568604,850.007568 867.655029,850.007568 852.538757,850.007568 
	C854.147766,844.123413 855.510437,839.140137 857.049072,833.513367 
	C870.148010,833.513367 882.702393,833.513367 895.946960,833.513367 
	C898.593567,824.125244 901.073669,815.327576 903.960449,805.087646 
	C890.613953,805.087646 878.480774,805.087646 865.099976,805.087646 
	C866.897766,798.633057 868.292603,793.625244 869.920044,787.782349 
	C884.464905,787.782349 898.654541,787.782349 912.896484,787.782349 
	C915.554138,778.288330 917.956848,769.705261 920.718384,759.840210 
	C894.372253,759.840210 869.135437,759.840210 842.100037,759.848389 
M1040.988281,759.852722 
	C1023.447815,759.852722 1005.907349,759.852722 988.821350,759.852722 
	C980.628113,781.658630 956.586243,870.759827 956.900574,877.746155 
	C984.384949,877.746155 1011.867004,877.746155 1039.569458,877.746155 
	C1042.084473,868.485535 1044.463989,859.723511 1046.978760,850.463867 
	C1031.510986,849.497070 1017.384766,851.001709 1002.632812,849.383972 
	C1004.206543,843.700500 1005.508850,838.997131 1006.981140,833.679871 
	C1019.986389,833.679871 1032.548828,833.679871 1045.722290,833.679871 
	C1048.414429,824.298218 1050.943359,815.485657 1053.890137,805.216919 
	C1040.647461,805.216919 1028.551392,805.216919 1015.041992,805.216919 
	C1016.959290,798.509399 1018.442017,793.322327 1020.063904,787.648438 
	C1034.872559,787.648438 1048.756470,787.648438 1062.893799,787.648438 
	C1065.471924,778.256897 1067.864014,769.542969 1070.524170,759.852600 
	C1060.234375,759.852600 1051.607300,759.852600 1040.988281,759.852722 
M1901.087158,788.014465 
	C1905.328369,788.014465 1909.569580,788.014465 1915.125977,788.014465 
	C1906.616333,818.530884 1898.440552,847.849365 1890.081177,877.826599 
	C1903.534302,877.826599 1916.070557,877.826599 1929.316162,877.826599 
	C1937.804810,847.860901 1946.269287,817.980774 1954.847778,787.698242 
	C1964.125610,787.698242 1972.349609,787.698242 1980.972046,787.698242 
	C1983.488892,778.333374 1985.842407,769.576599 1988.348511,760.251587 
	C1957.225586,760.251587 1927.362915,760.251587 1896.843872,760.251587 
	C1894.354492,769.298218 1891.926270,778.123108 1889.204590,788.014282 
	C1893.336060,788.014282 1896.282349,788.014282 1901.087158,788.014465 
M42.342316,878.271301 
	C66.873917,878.271301 91.405510,878.271301 116.279907,878.271301 
	C118.785210,868.459900 121.024246,859.691223 123.556770,849.773193 
	C110.195358,849.773193 98.381111,849.773193 85.658859,849.773193 
	C94.101959,819.460022 102.260826,790.167419 110.560616,760.368835 
	C96.782478,760.368835 84.265915,760.368835 71.288025,760.368835 
	C68.516983,770.305725 65.868538,779.883911 63.174263,789.449097 
	C55.775867,815.714966 48.285820,841.955505 41.044998,868.264648 
	C40.194824,871.353699 37.254860,874.703186 42.342316,878.271301 
M2059.823486,823.082825 
	C2065.553223,802.364014 2071.282715,781.645203 2077.183838,760.306152 
	C2063.455322,760.306152 2050.943604,760.306152 2037.920532,760.306152 
	C2026.932007,799.543335 2016.030151,838.471069 2005.003540,877.844238 
	C2018.992432,877.844238 2031.532471,877.844238 2044.320679,877.844238 
	C2049.407959,859.831299 2054.378174,842.233337 2059.823486,823.082825 
z"/>
<path fill="#213A69" opacity="1.000000" stroke="none" 
	d="
M2603.189209,956.886719 
	C2603.351562,955.582764 2603.513672,954.278870 2604.037354,952.111450 
	C2604.398682,951.247925 2604.270752,950.705994 2604.270752,950.705994 
	C2610.411865,918.340759 2616.558594,885.976624 2622.684814,853.608643 
	C2623.291992,850.398560 2623.773682,847.164673 2624.611084,842.168030 
	C2620.102295,844.094421 2616.884033,845.315857 2613.798096,846.810120 
	C2514.326172,894.973938 2414.868164,943.166626 2315.405518,991.348938 
	C2268.070801,1014.279114 2220.746582,1037.230713 2173.379395,1060.093384 
	C2163.527588,1064.848633 2153.507080,1069.253784 2142.253174,1073.759766 
	C2139.998779,1072.642944 2139.055176,1071.586426 2138.111816,1070.530029 
	C2165.528809,1055.857178 2192.938232,1041.169800 2220.364502,1026.514038 
	C2324.251953,970.999329 2428.144775,915.494934 2533.338135,859.902283 
	C2535.814697,858.862488 2536.988525,857.907043 2538.162598,856.951477 
	C2538.795410,856.545471 2539.428223,856.139526 2541.374512,855.731201 
	C2545.505859,855.897339 2547.619385,855.106262 2547.938232,851.872192 
	C2547.938232,851.872192 2548.361572,851.406250 2549.287598,851.388672 
	C2550.786377,850.816528 2551.358887,850.262085 2551.931152,849.707642 
	C2551.931152,849.707581 2552.258057,849.271423 2553.153564,849.301758 
	C2554.644531,848.786621 2555.239746,848.241150 2555.834961,847.695618 
	C2556.701172,847.080750 2557.567383,846.465942 2559.633789,845.840454 
	C2561.800781,845.046631 2562.767334,844.263428 2563.733643,843.480103 
	C2563.995117,843.199524 2564.256348,842.918884 2565.432129,842.484314 
	C2566.887207,841.892090 2567.427490,841.453857 2567.967773,841.015625 
	C2568.765137,840.524780 2569.562256,840.033936 2571.314209,839.833679 
	C2576.695801,840.816895 2578.921631,838.409180 2580.117920,834.551270 
	C2580.679688,834.186279 2581.241699,833.821350 2583.014160,833.491089 
	C2587.552002,831.383789 2590.879395,829.241882 2594.206543,827.100098 
	C2594.835938,826.660645 2595.465088,826.221191 2597.303711,825.754272 
	C2599.723877,824.732544 2600.934570,823.738342 2602.145508,822.744080 
	C2603.307617,822.035889 2604.469727,821.327698 2606.887695,820.445007 
	C2609.377686,819.424500 2610.612305,818.578552 2611.846680,817.732605 
	C2611.846680,817.732605 2611.910156,817.960388 2612.600586,817.940796 
	C2617.534668,816.362000 2622.151123,815.396851 2625.898438,813.046204 
	C2628.645996,811.322449 2630.253906,807.781189 2632.369629,805.049988 
	C2632.406006,804.550598 2632.442139,804.051208 2633.394531,802.559204 
	C2636.643555,791.420105 2641.794922,781.717896 2639.161377,770.788757 
	C2639.309082,769.562988 2639.456787,768.337219 2640.355469,766.086792 
	C2642.008789,760.783447 2645.697754,756.816895 2642.559814,752.085510 
	C2642.965820,749.810730 2643.371826,747.536011 2644.487793,744.166565 
	C2645.731689,739.422302 2649.583740,736.142456 2646.422363,732.081238 
	C2646.529785,731.177002 2646.636719,730.272705 2647.687012,728.368713 
	C2648.800781,724.510376 2648.971191,721.651733 2649.141602,718.793091 
	C2648.943848,718.320557 2648.954346,717.852661 2649.413086,716.387512 
	C2647.601562,712.196106 2645.203125,710.924622 2642.017578,714.004150 
	C2640.458008,714.071228 2638.898438,714.138306 2635.874512,713.693848 
	C2628.311279,713.305237 2622.212891,713.428101 2616.114258,713.551025 
	C2610.050537,713.450439 2603.986816,713.349915 2596.663086,712.391113 
	C2594.511719,711.122681 2593.623779,710.362732 2592.728271,710.354309 
	C2576.401611,710.199890 2560.073730,710.105957 2543.746338,710.113831 
	C2542.540527,710.114441 2541.335205,710.986877 2540.129639,711.453979 
	C2535.347168,711.505676 2530.564453,711.557434 2524.626953,711.396973 
	C2523.117432,711.678406 2522.762939,712.172119 2522.408691,712.665894 
	C2520.097656,714.921326 2517.786621,717.176819 2514.899170,719.779541 
	C2514.322754,720.126831 2514.397217,720.015076 2514.397217,720.015076 
	C2514.060547,720.418762 2513.724121,720.822449 2512.012207,721.672119 
	C2499.877686,731.105652 2489.059570,740.024719 2478.436523,749.169983 
	C2477.151611,750.276367 2476.917480,752.603760 2476.196045,754.365234 
	C2476.053711,755.011292 2475.695068,755.498230 2473.980957,755.997559 
	C2469.372559,759.712280 2465.903809,763.255493 2462.434814,766.798645 
	C2461.448975,767.821472 2460.463135,768.844299 2458.284180,770.070557 
	C2452.479248,771.852295 2449.327637,774.862122 2447.942383,779.604126 
	C2446.695801,780.704956 2445.449219,781.805786 2443.240967,783.375488 
	C2440.856201,785.005249 2439.432861,786.166199 2438.009521,787.327148 
	C2437.451904,787.925964 2436.894287,788.524841 2435.236328,789.381714 
	C2431.256592,788.341614 2432.707764,786.788086 2433.734131,785.057434 
	C2435.179688,782.619873 2436.392822,780.044434 2437.705566,777.527954 
	C2457.857910,756.056885 2478.154297,734.716248 2498.066895,713.028259 
	C2497.715332,712.214539 2497.363525,711.400757 2497.011963,710.587036 
	C2190.685303,702.323853 1884.358765,694.060669 1577.108032,684.939453 
	C1576.049927,683.582581 1575.915771,683.083679 1575.781494,682.584717 
	C1782.048218,682.560059 1988.315063,682.534912 2194.581787,682.510742 
	C2301.880859,682.498108 2409.180176,682.403015 2516.478516,682.651001 
	C2524.209961,682.668884 2529.318848,680.179504 2534.467773,674.664001 
	C2604.947998,599.166565 2675.635254,523.862244 2746.219238,448.461212 
	C2747.322510,447.282684 2747.764893,445.485504 2748.515625,443.976898 
	C2749.443848,444.597321 2750.372070,445.217712 2751.300293,445.838135 
	C2729.702148,524.079163 2708.104004,602.320129 2686.786377,679.545166 
	C2687.284912,681.056946 2687.307617,681.450500 2687.515137,681.664673 
	C2687.724365,681.880310 2688.109375,681.978455 2688.431641,682.022461 
	C2689.741211,682.201355 2691.056396,682.472961 2692.369385,682.473877 
	C2777.341064,682.530273 2862.312988,682.563232 2947.284668,682.618408 
	C2947.521240,682.618530 2947.758057,682.913513 2948.867188,683.650757 
	C2946.571777,685.112549 2944.657471,686.616821 2942.516846,687.653931 
	C2847.233154,733.810181 2751.980957,780.031799 2656.540771,825.862793 
	C2648.009766,829.959473 2643.371826,835.025757 2640.969727,844.353699 
	C2632.670166,876.584595 2623.367920,908.557251 2613.710449,941.727539 
	C2612.957031,943.613831 2612.940918,944.400879 2612.924561,945.187927 
	C2612.991455,945.863403 2612.882568,946.509216 2611.806152,948.016724 
	C2610.895752,950.275208 2610.777588,951.642334 2610.659180,953.009521 
	C2610.096924,955.482178 2609.534424,957.954895 2607.923584,961.160522 
	C2605.646484,960.224609 2604.417725,958.555725 2603.189209,956.886719 
M2661.114502,588.108704 
	C2626.921631,618.937683 2592.728760,649.766663 2556.988525,681.990845 
	C2591.297607,681.990845 2623.305176,681.990845 2655.887451,681.990845 
	C2662.595215,646.726990 2669.223877,611.877625 2675.852783,577.028198 
	C2675.414551,576.692749 2674.976318,576.357239 2674.537842,576.021729 
	C2670.418213,579.738098 2666.298340,583.454407 2661.114502,588.108704 
M2756.730225,739.738525 
	C2768.700439,733.118958 2781.082764,727.200745 2792.106201,718.493225 
	C2753.669922,717.506165 2715.233643,716.519165 2676.610596,715.527344 
	C2669.832275,741.736816 2662.158447,766.526123 2655.524902,793.853088 
	C2690.306152,775.234985 2722.853271,757.812866 2756.730225,739.738525 
z"/>
<path fill="#1F3868" opacity="1.000000" stroke="none" 
	d="
M1473.645508,817.696045 
	C1462.525269,837.751709 1451.405029,857.807434 1440.257812,877.911804 
	C1428.951050,877.911804 1418.063110,877.911804 1405.864014,877.911804 
	C1406.465576,853.346619 1407.057739,829.171509 1407.649780,804.996338 
	C1402.272217,811.751709 1401.123901,820.022339 1398.746338,827.794250 
	C1396.215210,836.067566 1394.103394,844.468384 1391.757568,852.799255 
	C1389.423828,861.087219 1387.026733,869.357300 1384.600830,877.832520 
	C1372.641724,877.832520 1361.170776,877.832520 1348.678833,877.832520 
	C1359.820312,838.104309 1370.752197,799.123291 1381.697144,760.095825 
	C1401.481201,760.095825 1420.437134,760.095825 1440.698975,760.095825 
	C1439.620605,781.388184 1438.552979,802.469727 1437.485229,823.551208 
	C1438.154663,823.798462 1438.824097,824.045715 1439.493530,824.292969 
	C1445.815430,814.113037 1450.460571,802.973450 1455.961060,792.334106 
	C1461.451660,781.713989 1466.676880,770.956787 1472.057129,760.182373 
	C1492.123047,760.182373 1511.694824,760.182373 1532.741577,760.182373 
	C1522.262451,799.898010 1510.864868,838.624451 1500.042725,877.808594 
	C1487.366211,877.808594 1475.175659,877.808594 1462.029541,877.808594 
	C1467.943115,857.375061 1473.658813,837.625732 1479.953979,816.594727 
	C1481.766724,810.627625 1483.000000,805.942139 1484.233276,801.256653 
	C1483.459839,801.021606 1482.686279,800.786560 1481.912842,800.551514 
	C1479.677124,805.222656 1477.441406,809.893860 1475.205566,814.565002 
	C1475.205566,814.565002 1474.782349,815.009155 1474.312256,815.530151 
	C1473.466309,816.562317 1473.400757,817.110596 1473.645508,817.696045 
z"/>
<path fill="#1E3868" opacity="1.000000" stroke="none" 
	d="
M2175.695312,871.932922 
	C2175.319336,866.482849 2174.943359,861.032776 2174.727051,854.347412 
	C2174.569580,851.416443 2174.252197,849.720703 2173.934814,848.025024 
	C2173.322021,838.767212 2172.709229,829.509460 2172.127686,820.722961 
	C2168.221436,818.406555 2166.537842,819.900330 2165.629639,822.960266 
	C2163.741211,829.325439 2161.848145,835.689697 2160.030762,842.075317 
	C2156.671875,853.876160 2153.366455,865.692261 2149.947510,877.826660 
	C2137.362549,877.826660 2125.185791,877.826660 2111.430908,877.826660 
	C2122.450439,838.471924 2133.306396,799.701843 2144.299805,760.440247 
	C2161.979004,760.440247 2179.429932,760.440247 2197.851074,760.440247 
	C2199.575684,778.942200 2201.292236,797.359619 2202.949219,817.365417 
	C2203.277344,822.353394 2203.664795,825.752991 2204.052490,829.152649 
	C2204.736084,829.212830 2205.419922,829.273010 2206.103516,829.333191 
	C2206.899658,825.692749 2207.695557,822.052246 2208.491699,818.411804 
	C2214.017334,799.287109 2219.543213,780.162354 2225.228516,760.484985 
	C2237.179199,760.484985 2249.009033,760.484985 2262.378906,760.484985 
	C2251.415039,799.704712 2240.563232,838.523865 2229.648682,877.566589 
	C2211.834961,877.566589 2194.309082,877.566589 2176.538574,876.115234 
	C2176.094238,873.753540 2175.894775,872.843262 2175.695312,871.932922 
M2172.131592,815.063538 
	C2172.147217,812.212891 2172.868896,809.170532 2169.419678,805.409241 
	C2168.645020,809.973938 2168.130371,813.006958 2167.514893,818.040039 
	C2169.867676,819.549927 2171.212158,819.146179 2172.131592,815.063538 
z"/>
<path fill="#1E3868" opacity="1.000000" stroke="none" 
	d="
M1805.944824,759.854675 
	C1814.212646,760.338379 1821.608032,760.175049 1828.744629,761.454895 
	C1840.567017,763.575134 1848.931763,770.369080 1850.945801,782.727600 
	C1853.047241,795.621887 1848.944092,806.544922 1837.844604,813.923401 
	C1833.280029,816.957764 1827.903564,818.770874 1822.718628,821.223633 
	C1823.391357,821.804199 1824.007080,822.683899 1824.837158,822.998901 
	C1834.783447,826.773438 1836.868652,834.749756 1835.802368,844.071167 
	C1834.526001,855.227051 1832.813843,866.333069 1831.231445,877.891113 
	C1818.334229,877.891113 1805.132690,877.891113 1790.599976,877.891113 
	C1790.766235,874.161682 1790.624390,870.650452 1791.137329,867.237671 
	C1792.175049,860.332947 1793.863892,853.519165 1794.742310,846.599182 
	C1795.935059,837.203308 1793.375488,834.386292 1784.159546,834.023132 
	C1781.854980,833.932312 1779.543823,834.009583 1776.264404,834.009583 
	C1772.037109,848.705261 1767.853027,863.250671 1763.666138,877.806152 
	C1750.513062,877.806152 1737.963135,877.806152 1724.365967,877.806152 
	C1735.400757,838.457458 1746.240112,799.805420 1757.443359,759.856140 
	C1773.245117,759.856140 1789.100586,759.856140 1805.944824,759.854675 
M1800.277710,787.949402 
	C1796.696289,787.949402 1793.114990,787.949402 1788.911133,787.949402 
	C1786.992310,795.100769 1785.241211,801.627075 1782.973022,810.080322 
	C1790.419312,809.068237 1796.330444,808.856934 1801.881104,807.332581 
	C1806.761353,805.992249 1809.825317,800.371948 1809.604248,795.690002 
	C1809.374756,790.829407 1806.251831,788.840332 1800.277710,787.949402 
z"/>
<path fill="#1F3868" opacity="1.000000" stroke="none" 
	d="
M724.556763,774.249146 
	C726.007996,769.324951 727.223755,765.183838 728.608093,760.468445 
	C741.445496,760.468445 754.241760,760.468445 767.844482,760.468445 
	C756.868652,799.659607 746.036072,838.339355 735.033691,877.625610 
	C722.156189,877.625610 709.367004,877.625610 695.687500,877.625610 
	C699.660095,863.164001 703.495239,849.202515 707.528320,834.520691 
	C699.604858,834.520691 692.756531,834.520691 684.877258,834.520691 
	C680.716370,848.796326 676.479065,863.333984 672.211487,877.975464 
	C659.346924,877.975464 647.109924,877.975464 633.285767,877.975464 
	C643.773193,838.325500 655.175415,799.679321 666.021362,760.415039 
	C678.897522,760.415039 691.386292,760.415039 705.281372,760.415039 
	C701.391235,774.655396 697.600403,788.532227 693.554260,803.343750 
	C701.377075,803.343750 708.426880,803.343750 716.414734,803.343750 
	C718.983093,794.146912 721.652222,784.589600 724.556763,774.249146 
z"/>
<path fill="#1F3868" opacity="1.000000" stroke="none" 
	d="
M1112.630859,874.726196 
	C1123.469971,836.138611 1134.128418,798.381592 1144.757080,760.730408 
	C1164.607056,760.730408 1183.856201,760.529907 1203.094849,760.888306 
	C1207.280151,760.966248 1211.578735,762.669983 1215.566406,764.270081 
	C1231.059814,770.486572 1239.683105,782.154236 1239.794922,798.788208 
	C1240.041504,835.479797 1218.300171,873.924988 1168.692627,877.816650 
	C1151.463867,879.168274 1134.052612,878.259399 1116.725830,878.164368 
	C1115.296021,878.156494 1113.875366,876.465759 1112.630859,874.726196 
M1191.280273,789.028564 
	C1186.412476,788.612854 1181.544678,788.197144 1176.399414,787.757812 
	C1170.502075,808.777710 1164.873413,828.840027 1159.222778,848.980530 
	C1175.408325,851.801941 1183.486572,848.388306 1190.937378,835.779785 
	C1196.976318,825.560242 1199.845337,814.413513 1200.137817,802.563232 
	C1200.281494,796.750122 1198.460205,792.138855 1191.280273,789.028564 
z"/>
<path fill="#1F3968" opacity="1.000000" stroke="none" 
	d="
M542.825928,800.085754 
	C551.807312,788.657227 560.964966,777.360657 569.674744,765.728638 
	C572.735229,761.641357 575.774658,759.485657 581.164673,759.712524 
	C591.965637,760.167236 602.799255,759.847534 615.486328,759.847534 
	C612.366211,763.964966 610.552795,766.583740 608.513062,769.012329 
	C597.170593,782.517212 585.941284,796.123657 574.301208,809.368408 
	C570.357849,813.855469 569.321594,817.855469 571.084229,823.721375 
	C576.338379,841.206482 580.902710,858.898987 586.172607,878.099548 
	C571.969727,878.500488 558.598694,878.125305 544.563904,878.344177 
	C540.335571,861.291199 536.222595,844.703613 532.109619,828.115967 
	C531.587769,828.161133 531.065979,828.206299 530.544189,828.251465 
	C525.813477,844.798523 521.082825,861.345520 516.329163,877.972900 
	C503.373840,877.972900 491.137848,877.972900 478.912231,877.972900 
	C478.656860,870.359680 502.668793,781.456970 510.631378,760.420959 
	C522.882202,760.420959 535.365234,760.420959 549.257385,760.420959 
	C546.061218,772.026917 542.955627,783.303833 539.271301,795.876587 
	C537.624146,801.061584 536.555725,804.950745 535.487244,808.839966 
	C536.245300,809.154907 537.003357,809.469788 537.761414,809.784668 
	C539.449585,806.551697 541.137756,803.318726 542.825928,800.085754 
z"/>
<path fill="#1E3868" opacity="1.000000" stroke="none" 
	d="
M286.410278,801.209045 
	C284.361481,822.787903 277.610229,841.726929 263.760071,857.473511 
	C246.387039,877.225342 224.185013,883.629089 198.767273,878.315186 
	C181.860977,874.780579 172.052612,863.124817 171.606079,845.962891 
	C170.929626,819.963562 178.637970,796.543640 196.995804,777.747009 
	C214.741928,759.576660 236.832886,754.511841 261.258057,760.344604 
	C275.827942,763.823914 285.093994,775.456604 286.331390,790.390564 
	C286.605194,793.695312 286.431274,797.037170 286.410278,801.209045 
M210.646927,835.652344 
	C209.824966,841.051147 209.119766,846.488525 215.354141,849.375366 
	C220.036880,851.543762 225.485657,849.627014 230.318268,844.344482 
	C231.433456,843.125549 232.513199,841.833130 233.376785,840.431335 
	C241.155136,827.804810 245.310013,813.886780 247.625595,799.377686 
	C248.284897,795.246521 247.510117,790.594299 243.193802,789.332886 
	C239.797791,788.340454 234.816010,788.468323 232.127747,790.358582 
	C227.986954,793.270081 224.042908,797.623413 222.085983,802.242249 
	C217.716827,812.554626 214.626938,823.409058 210.646927,835.652344 
z"/>
<path fill="#203A69" opacity="1.000000" stroke="none" 
	d="
M1665.468872,759.844177 
	C1668.786743,759.910645 1671.264893,759.855469 1671.497437,763.148804 
	C1671.614502,764.807373 1671.618286,766.476257 1671.618530,768.140442 
	C1671.625122,802.794617 1671.628296,837.448853 1671.608765,872.103027 
	C1671.607910,873.747620 1671.392212,875.392151 1671.230835,877.685791 
	C1658.546509,877.685791 1646.050171,877.685791 1632.717773,877.685791 
	C1632.717773,871.439880 1632.717773,865.029114 1632.717773,858.157959 
	C1621.004150,858.157959 1610.105225,858.157959 1598.042847,858.157959 
	C1594.742920,864.200439 1591.121582,870.831360 1587.322998,877.786621 
	C1575.471069,877.786621 1563.668457,877.786621 1550.451904,877.786621 
	C1572.764038,837.954163 1594.502075,799.146790 1616.519531,759.840332 
	C1632.629028,759.840332 1648.574951,759.840332 1665.468872,759.844177 
M1635.597046,826.446655 
	C1635.444702,814.178955 1636.645020,801.873108 1633.915649,789.306152 
	C1626.104492,803.275940 1618.293213,817.245789 1609.766235,832.495728 
	C1616.053589,832.495728 1620.637451,832.501282 1625.221313,832.493103 
	C1627.206909,832.489563 1629.192749,832.437500 1631.178223,832.443604 
	C1633.947754,832.452148 1635.542114,831.251709 1635.597046,826.446655 
z"/>
<path fill="#203968" opacity="1.000000" stroke="none" 
	d="
M424.990265,833.914001 
	C429.481415,835.224670 427.649414,837.636414 426.949982,839.623779 
	C420.722015,857.319763 409.097229,869.835938 391.261749,876.150208 
	C378.377319,880.711548 365.189301,881.509216 351.931732,878.046204 
	C336.309113,873.965515 326.428894,862.554565 326.091644,846.477173 
	C325.538940,820.129333 333.393158,796.361755 352.098877,777.332520 
	C370.612823,758.498291 393.619446,754.387207 418.550354,760.666748 
	C433.636841,764.466675 440.992126,775.950928 439.559265,791.435974 
	C439.195038,795.371765 438.263184,799.255066 437.491394,803.749329 
	C425.724396,803.749329 414.224670,803.749329 401.901611,803.749329 
	C401.901611,801.810547 401.941772,799.648254 401.894409,797.487915 
	C401.724945,789.757385 396.259949,785.862915 389.211426,789.157043 
	C385.777222,790.761963 382.475250,793.635742 380.292023,796.759033 
	C371.318848,809.596191 367.211517,824.301514 365.238098,839.655273 
	C364.745392,843.488586 365.546204,847.825012 369.500244,848.827087 
	C372.977173,849.708435 377.924011,849.612549 380.612274,847.693604 
	C385.041718,844.531921 388.172455,839.551025 393.133789,833.866882 
	C402.238617,833.866882 413.170502,833.866882 424.990265,833.914001 
z"/>
<path fill="#1F3968" opacity="1.000000" stroke="none" 
	d="
M842.999268,759.844299 
	C869.135437,759.840210 894.372253,759.840210 920.718384,759.840210 
	C917.956848,769.705261 915.554138,778.288330 912.896484,787.782349 
	C898.654541,787.782349 884.464905,787.782349 869.920044,787.782349 
	C868.292603,793.625244 866.897766,798.633057 865.099976,805.087646 
	C878.480774,805.087646 890.613953,805.087646 903.960449,805.087646 
	C901.073669,815.327576 898.593567,824.125244 895.946960,833.513367 
	C882.702393,833.513367 870.148010,833.513367 857.049072,833.513367 
	C855.510437,839.140137 854.147766,844.123413 852.538757,850.007568 
	C867.655029,850.007568 881.568604,850.007568 897.136536,850.007568 
	C894.510376,859.752686 892.150513,868.510071 889.658691,877.756714 
	C861.852539,877.756714 834.350403,877.756714 806.112061,877.756714 
	C806.359985,875.571289 806.315918,873.348389 806.888733,871.297791 
	C816.650574,836.353455 826.472656,801.425903 836.339233,766.510986 
	C837.194214,763.485291 837.253479,759.528931 842.999268,759.844299 
z"/>
<path fill="#1F3968" opacity="1.000000" stroke="none" 
	d="
M1041.984131,759.852661 
	C1051.607300,759.852600 1060.234375,759.852600 1070.524170,759.852600 
	C1067.864014,769.542969 1065.471924,778.256897 1062.893799,787.648438 
	C1048.756470,787.648438 1034.872559,787.648438 1020.063904,787.648438 
	C1018.442017,793.322327 1016.959290,798.509399 1015.041992,805.216919 
	C1028.551392,805.216919 1040.647461,805.216919 1053.890137,805.216919 
	C1050.943359,815.485657 1048.414429,824.298218 1045.722290,833.679871 
	C1032.548828,833.679871 1019.986389,833.679871 1006.981140,833.679871 
	C1005.508850,838.997131 1004.206543,843.700500 1002.632812,849.383972 
	C1017.384766,851.001709 1031.510986,849.497070 1046.978760,850.463867 
	C1044.463989,859.723511 1042.084473,868.485535 1039.569458,877.746155 
	C1011.867004,877.746155 984.384949,877.746155 956.900574,877.746155 
	C956.586243,870.759827 980.628113,781.658630 988.821350,759.852722 
	C1005.907349,759.852722 1023.447815,759.852722 1041.984131,759.852661 
z"/>
<path fill="#1F3968" opacity="1.000000" stroke="none" 
	d="
M1900.157837,788.014404 
	C1896.282349,788.014282 1893.336060,788.014282 1889.204590,788.014282 
	C1891.926270,778.123108 1894.354492,769.298218 1896.843872,760.251587 
	C1927.362915,760.251587 1957.225586,760.251587 1988.348511,760.251587 
	C1985.842407,769.576599 1983.488892,778.333374 1980.972046,787.698242 
	C1972.349609,787.698242 1964.125610,787.698242 1954.847778,787.698242 
	C1946.269287,817.980774 1937.804810,847.860901 1929.316162,877.826599 
	C1916.070557,877.826599 1903.534302,877.826599 1890.081177,877.826599 
	C1898.440552,847.849365 1906.616333,818.530884 1915.125977,788.014465 
	C1909.569580,788.014465 1905.328369,788.014465 1900.157837,788.014404 
z"/>
<path fill="#1F3968" opacity="1.000000" stroke="none" 
	d="
M41.492973,878.184387 
	C37.254860,874.703186 40.194824,871.353699 41.044998,868.264648 
	C48.285820,841.955505 55.775867,815.714966 63.174263,789.449097 
	C65.868538,779.883911 68.516983,770.305725 71.288025,760.368835 
	C84.265915,760.368835 96.782478,760.368835 110.560616,760.368835 
	C102.260826,790.167419 94.101959,819.460022 85.658859,849.773193 
	C98.381111,849.773193 110.195358,849.773193 123.556770,849.773193 
	C121.024246,859.691223 118.785210,868.459900 116.279907,878.271301 
	C91.405510,878.271301 66.873917,878.271301 41.492973,878.184387 
z"/>
<path fill="#1F3968" opacity="1.000000" stroke="none" 
	d="
M2059.585938,823.859131 
	C2054.378174,842.233337 2049.407959,859.831299 2044.320679,877.844238 
	C2031.532471,877.844238 2018.992432,877.844238 2005.003540,877.844238 
	C2016.030151,838.471069 2026.932007,799.543335 2037.920532,760.306152 
	C2050.943604,760.306152 2063.455322,760.306152 2077.183838,760.306152 
	C2071.282715,781.645203 2065.553223,802.364014 2059.585938,823.859131 
z"/>
<path fill="#525B76" opacity="1.000000" stroke="none" 
	d="
M2137.450195,1070.724365 
	C2139.055176,1071.586426 2139.998779,1072.642944 2141.527344,1073.888062 
	C2140.017334,1075.575317 2138.084717,1077.406860 2135.802246,1078.520874 
	C2113.794922,1089.261719 2091.728760,1099.881714 2068.867676,1110.021606 
	C2068.022949,1108.986572 2067.989746,1108.466309 2067.956787,1107.946045 
	C2090.900879,1095.603638 2113.844727,1083.261108 2137.450195,1070.724365 
z"/>
<path fill="#525B76" opacity="1.000000" stroke="none" 
	d="
M2383.901611,835.911011 
	C2386.779297,832.414001 2389.489990,828.762024 2392.564697,825.447937 
	C2403.053223,814.143127 2413.669922,802.957458 2424.986816,792.124268 
	C2426.888428,793.410278 2428.041016,794.298218 2429.300537,795.296448 
	C2429.407715,795.406738 2429.623047,795.626343 2429.623047,795.626343 
	C2415.141602,809.144897 2400.659912,822.663391 2385.279785,836.215820 
	C2384.381104,836.249817 2383.901611,835.911011 2383.901611,835.911011 
z"/>
<path fill="#525B76" opacity="1.000000" stroke="none" 
	d="
M2602.721191,957.464600 
	C2604.417725,958.555725 2605.646484,960.224609 2607.542725,961.821411 
	C2603.803223,978.643127 2599.396729,995.537048 2594.989014,1012.430664 
	C2594.655518,1013.708557 2594.312012,1014.983826 2593.322510,1016.953247 
	C2592.014160,1017.511841 2591.350586,1017.470337 2590.681396,1017.521545 
	C2594.538818,997.695190 2598.396240,977.868835 2602.721191,957.464600 
z"/>
<path fill="#73829B" opacity="1.000000" stroke="none" 
	d="
M1575.040527,682.295593 
	C1575.915771,683.083679 1576.049927,683.582581 1576.193115,684.856445 
	C1559.067017,685.374451 1541.930542,685.183716 1524.797363,684.823059 
	C1519.197266,684.705139 1513.606445,684.145264 1507.128906,683.403076 
	C1506.246460,683.018616 1506.269653,682.400452 1506.269653,682.400452 
	C1528.946289,682.269104 1551.623047,682.137756 1575.040527,682.295593 
z"/>
<path fill="#525B76" opacity="1.000000" stroke="none" 
	d="
M2540.865234,711.749634 
	C2541.335205,710.986877 2542.540527,710.114441 2543.746338,710.113831 
	C2560.073730,710.105957 2576.401611,710.199890 2592.728271,710.354309 
	C2593.623779,710.362732 2594.511719,711.122681 2595.788818,712.168640 
	C2584.942383,712.718201 2573.709717,712.672119 2562.478516,712.531067 
	C2555.518555,712.443604 2548.560059,712.212036 2540.865234,711.749634 
z"/>
<path fill="#525B76" opacity="1.000000" stroke="none" 
	d="
M2476.845947,754.139038 
	C2476.917480,752.603760 2477.151611,750.276367 2478.436523,749.169983 
	C2489.059570,740.024719 2499.877686,731.105652 2511.333008,722.072266 
	C2500.518311,732.655151 2489.007080,743.283997 2476.845947,754.139038 
z"/>
<path fill="#B4B9BB" opacity="1.000000" stroke="none" 
	d="
M2044.051270,1123.073853 
	C2034.902466,1129.514404 2024.423706,1133.056519 2014.550171,1137.917358 
	C2014.218994,1137.270752 2013.887817,1136.624268 2013.556763,1135.977783 
	C2023.266235,1130.733398 2032.975830,1125.489136 2043.390503,1120.925537 
	C2044.080933,1122.095459 2044.066040,1122.584717 2044.051270,1123.073853 
z"/>
<path fill="#525B76" opacity="1.000000" stroke="none" 
	d="
M2638.715332,771.392395 
	C2641.794922,781.717896 2636.643555,791.420105 2633.683350,801.865967 
	C2634.793945,792.108887 2636.531738,782.052429 2638.715332,771.392395 
z"/>
<path fill="#73829B" opacity="1.000000" stroke="none" 
	d="
M2044.750977,1122.753906 
	C2044.066040,1122.584717 2044.080933,1122.095459 2044.107178,1120.872314 
	C2051.591309,1116.142212 2059.064209,1112.145996 2067.247070,1108.047852 
	C2067.989746,1108.466309 2068.022949,1108.986572 2068.143555,1110.284302 
	C2060.637939,1114.852539 2053.044434,1118.643188 2044.750977,1122.753906 
z"/>
<path fill="#525B76" opacity="1.000000" stroke="none" 
	d="
M2437.101318,777.770630 
	C2436.392822,780.044434 2435.179688,782.619873 2433.734131,785.057434 
	C2432.707764,786.788086 2431.256592,788.341614 2434.748047,789.756470 
	C2433.760010,791.541199 2432.159912,793.209290 2430.091309,795.251831 
	C2429.623047,795.626343 2429.407715,795.406738 2429.460449,794.642944 
	C2428.941162,792.173889 2428.368896,790.468628 2427.796387,788.763306 
	C2430.696533,785.179932 2433.596680,781.596619 2437.101318,777.770630 
z"/>
<path fill="#525B76" opacity="1.000000" stroke="none" 
	d="
M2631.842285,805.455078 
	C2630.253906,807.781189 2628.645996,811.322449 2625.898438,813.046204 
	C2622.151123,815.396851 2617.534668,816.362000 2612.522461,817.852051 
	C2618.274170,813.808655 2624.794434,809.834412 2631.842285,805.455078 
z"/>
<path fill="#B4B9BB" opacity="1.000000" stroke="none" 
	d="
M2590.228516,1018.218689 
	C2591.350586,1017.470337 2592.014160,1017.511841 2593.170898,1017.666077 
	C2592.121582,1024.542480 2590.572998,1031.398804 2589.024414,1038.255249 
	C2586.933350,1032.643921 2587.505615,1027.211426 2590.228516,1018.218689 
z"/>
<path fill="#B4B9BB" opacity="1.000000" stroke="none" 
	d="
M2384.153076,838.200073 
	C2379.679688,842.684082 2375.206055,847.167969 2370.732422,851.651917 
	C2370.020752,850.971985 2369.309082,850.292053 2368.597656,849.612122 
	C2372.297119,845.810425 2375.996582,842.008728 2381.120605,838.114380 
	C2383.081055,838.081177 2383.616943,838.140625 2384.153076,838.200073 
z"/>
<path fill="#B4B9BB" opacity="1.000000" stroke="none" 
	d="
M1476.343750,814.952209 
	C1477.441406,809.893860 1479.677124,805.222656 1481.912842,800.551514 
	C1482.686279,800.786560 1483.459839,801.021606 1484.233276,801.256653 
	C1483.000000,805.942139 1481.766724,810.627625 1480.112061,815.801453 
	C1478.954468,815.972961 1478.218140,815.656189 1476.343750,814.952209 
z"/>
<path fill="#525B76" opacity="1.000000" stroke="none" 
	d="
M2616.821289,713.810303 
	C2622.212891,713.428101 2628.311279,713.305237 2635.107666,713.535156 
	C2629.713135,713.948486 2623.620605,714.009033 2616.821289,713.810303 
z"/>
<path fill="#B4B9BB" opacity="1.000000" stroke="none" 
	d="
M1505.333496,682.207153 
	C1506.269653,682.400452 1506.246460,683.018616 1506.250977,683.327209 
	C1497.125244,683.635803 1487.994995,683.635803 1478.864746,683.635803 
	C1478.860596,683.095154 1478.856567,682.554565 1478.852539,682.013916 
	C1487.367554,682.013916 1495.882446,682.013916 1505.333496,682.207153 
z"/>
<path fill="#B4B9BB" opacity="1.000000" stroke="none" 
	d="
M542.108765,799.045288 
	C541.137756,803.318726 539.449585,806.551697 537.761414,809.784668 
	C537.003357,809.469788 536.245300,809.154907 535.487244,808.839966 
	C536.555725,804.950745 537.624146,801.061584 539.180542,796.664062 
	C540.242920,796.772095 540.817261,797.388428 542.108765,799.045288 
z"/>
<path fill="#525B76" opacity="1.000000" stroke="none" 
	d="
M2463.079834,766.577515 
	C2465.903809,763.255493 2469.372559,759.712280 2473.541504,756.147949 
	C2470.735840,759.536743 2467.230225,762.946594 2463.079834,766.577515 
z"/>
<path fill="#525B76" opacity="1.000000" stroke="none" 
	d="
M2642.212158,752.669556 
	C2645.697754,756.816895 2642.008789,760.783447 2640.583984,765.509399 
	C2640.662842,761.722351 2641.263672,757.487915 2642.212158,752.669556 
z"/>
<path fill="#525B76" opacity="1.000000" stroke="none" 
	d="
M2448.583740,779.524170 
	C2449.327637,774.862122 2452.479248,771.852295 2457.790527,770.284912 
	C2455.401611,773.345276 2452.313232,776.394714 2448.583740,779.524170 
z"/>
<path fill="#B4B9BB" opacity="1.000000" stroke="none" 
	d="
M2207.839844,818.448853 
	C2207.695557,822.052246 2206.899658,825.692749 2206.103516,829.333191 
	C2205.419922,829.273010 2204.736084,829.212830 2204.052490,829.152649 
	C2203.664795,825.752991 2203.277344,822.353394 2203.163574,818.244507 
	C2204.687744,817.852173 2205.937988,818.169067 2207.839844,818.448853 
z"/>
<path fill="#525B76" opacity="1.000000" stroke="none" 
	d="
M2646.111816,732.643311 
	C2649.583740,736.142456 2645.731689,739.422302 2644.691650,743.498779 
	C2644.723877,740.352173 2645.262695,736.778748 2646.111816,732.643311 
z"/>
<path fill="#525B76" opacity="1.000000" stroke="none" 
	d="
M2593.558350,827.193604 
	C2590.879395,829.241882 2587.552002,831.383789 2583.504883,833.365601 
	C2586.159912,831.232727 2589.534912,829.259949 2593.558350,827.193604 
z"/>
<path fill="#525B76" opacity="1.000000" stroke="none" 
	d="
M2579.497070,834.600586 
	C2578.921631,838.409180 2576.695801,840.816895 2571.989258,839.619629 
	C2574.098633,837.626648 2576.487305,836.138306 2579.497070,834.600586 
z"/>
<path fill="#525B76" opacity="1.000000" stroke="none" 
	d="
M2648.713623,719.343506 
	C2648.971191,721.651733 2648.800781,724.510376 2648.049805,727.782898 
	C2647.741211,725.429138 2648.013428,722.661499 2648.713623,719.343506 
z"/>
<path fill="#525B76" opacity="1.000000" stroke="none" 
	d="
M2642.634766,714.286133 
	C2645.203125,710.924622 2647.601562,712.196106 2649.608398,716.086182 
	C2647.459717,716.047241 2645.355713,715.307678 2642.634766,714.286133 
z"/>
<path fill="#B4B9BB" opacity="1.000000" stroke="none" 
	d="
M2173.538818,848.451721 
	C2174.252197,849.720703 2174.569580,851.416443 2174.587891,853.554565 
	C2173.906738,852.290771 2173.524902,850.584595 2173.538818,848.451721 
z"/>
<path fill="#525B76" opacity="1.000000" stroke="none" 
	d="
M2547.274658,851.905273 
	C2547.619385,855.106262 2545.505859,855.897339 2541.933105,855.617188 
	C2542.989258,854.316467 2544.800293,853.127441 2547.274658,851.905273 
z"/>
<path fill="#213A69" opacity="1.000000" stroke="none" 
	d="
M2427.303955,789.062134 
	C2428.368896,790.468628 2428.941162,792.173889 2429.353516,794.532715 
	C2428.041016,794.298218 2426.888428,793.410278 2425.618164,791.871094 
	C2425.937500,790.600220 2426.374268,789.980591 2427.303955,789.062134 
z"/>
<path fill="#525B76" opacity="1.000000" stroke="none" 
	d="
M2438.565918,787.151794 
	C2439.432861,786.166199 2440.856201,785.005249 2442.864990,783.877686 
	C2442.008057,784.932922 2440.565186,785.954712 2438.565918,787.151794 
z"/>
<path fill="#525B76" opacity="1.000000" stroke="none" 
	d="
M2601.560791,822.824097 
	C2600.934570,823.738342 2599.723877,824.732544 2597.874023,825.627075 
	C2598.481934,824.652954 2599.729004,823.778564 2601.560791,822.824097 
z"/>
<path fill="#525B76" opacity="1.000000" stroke="none" 
	d="
M2537.592773,857.018860 
	C2536.988525,857.907043 2535.814697,858.862488 2534.025391,859.731750 
	C2534.614258,858.792358 2535.818604,857.939270 2537.592773,857.018860 
z"/>
<path fill="#525B76" opacity="1.000000" stroke="none" 
	d="
M2611.271240,817.746704 
	C2610.612305,818.578552 2609.377686,819.424500 2607.540039,820.245483 
	C2608.189697,819.400574 2609.442871,818.580688 2611.271240,817.746704 
z"/>
<path fill="#525B76" opacity="1.000000" stroke="none" 
	d="
M2611.134766,952.511475 
	C2610.777588,951.642334 2610.895752,950.275208 2611.556152,948.444702 
	C2611.935791,949.325439 2611.772949,950.669434 2611.134766,952.511475 
z"/>
<path fill="#B4B9BB" opacity="1.000000" stroke="none" 
	d="
M2175.336426,872.270142 
	C2175.894775,872.843262 2176.094238,873.753540 2176.107910,875.349121 
	C2175.606934,874.892090 2175.291992,873.749756 2175.336426,872.270142 
z"/>
<path fill="#525B76" opacity="1.000000" stroke="none" 
	d="
M2563.108887,843.529907 
	C2562.767334,844.263428 2561.800781,845.046631 2560.167236,845.757446 
	C2560.494873,844.983215 2561.489258,844.281433 2563.108887,843.529907 
z"/>
<path fill="#525B76" opacity="1.000000" stroke="none" 
	d="
M2567.584961,840.973267 
	C2567.427490,841.453857 2566.887207,841.892090 2565.981445,842.313660 
	C2566.144775,841.841614 2566.673584,841.386292 2567.584961,840.973267 
z"/>
<path fill="#525B76" opacity="1.000000" stroke="none" 
	d="
M2514.312988,720.185669 
	C2514.397217,720.015076 2514.322754,720.126831 2514.283203,720.121094 
	C2514.243896,720.115295 2514.228516,720.356201 2514.312988,720.185669 
z"/>
<path fill="#525B76" opacity="1.000000" stroke="none" 
	d="
M2604.053223,950.737061 
	C2604.270752,950.705994 2604.398682,951.247925 2604.266602,951.492371 
	C2604.134766,951.736816 2603.672363,951.348572 2603.672363,951.348572 
	C2603.672363,951.348572 2603.835693,950.768127 2604.053223,950.737061 
z"/>
<path fill="#525B76" opacity="1.000000" stroke="none" 
	d="
M2555.232422,847.715942 
	C2555.239746,848.241150 2554.644531,848.786621 2553.423340,849.262451 
	C2553.408203,848.707214 2554.019043,848.221741 2555.232422,847.715942 
z"/>
<path fill="#525B76" opacity="1.000000" stroke="none" 
	d="
M2613.336182,944.753052 
	C2612.940918,944.400879 2612.957031,943.613831 2613.422852,942.405640 
	C2613.830811,942.762390 2613.789307,943.540283 2613.336182,944.753052 
z"/>
<path fill="#525B76" opacity="1.000000" stroke="none" 
	d="
M2551.330322,849.738647 
	C2551.358887,850.262085 2550.786377,850.816528 2549.598877,851.339844 
	C2549.565674,850.795715 2550.147461,850.282715 2551.330322,849.738647 
z"/>
<path fill="#525B76" opacity="1.000000" stroke="none" 
	d="
M2522.888184,712.578735 
	C2522.762939,712.172119 2523.117432,711.678406 2523.732422,711.464294 
	C2523.993164,711.743896 2523.367920,712.491699 2522.888184,712.578735 
z"/>
<path fill="#525B76" opacity="1.000000" stroke="none" 
	d="
M2384.427979,837.829163 
	C2383.616943,838.140625 2383.081055,838.081177 2381.735107,838.007141 
	C2381.512207,837.398987 2382.099854,836.805481 2383.294434,836.061523 
	C2383.901611,835.911011 2384.381104,836.249817 2384.643066,836.403564 
	C2384.904785,836.557251 2384.702881,837.458313 2384.427979,837.829163 
z"/>
<path fill="#B4B9BB" opacity="1.000000" stroke="none" 
	d="
M1474.084717,817.510620 
	C1473.400757,817.110596 1473.466309,816.562317 1474.202637,815.816650 
	C1475.050049,816.174438 1475.036987,816.755432 1474.084717,817.510620 
z"/>
<path fill="#F8FAFA" opacity="1.000000" stroke="none" 
	d="
M2661.646484,587.639709 
	C2666.298340,583.454407 2670.418213,579.738098 2674.537842,576.021729 
	C2674.976318,576.357239 2675.414551,576.692749 2675.852783,577.028198 
	C2669.223877,611.877625 2662.595215,646.726990 2655.887451,681.990845 
	C2623.305176,681.990845 2591.297607,681.990845 2556.988525,681.990845 
	C2592.728760,649.766663 2626.921631,618.937683 2661.646484,587.639709 
z"/>
<path fill="#F7F9F9" opacity="1.000000" stroke="none" 
	d="
M2756.065186,740.064636 
	C2722.853271,757.812866 2690.306152,775.234985 2655.524902,793.853088 
	C2662.158447,766.526123 2669.832275,741.736816 2676.610596,715.527344 
	C2715.233643,716.519165 2753.669922,717.506165 2792.106201,718.493225 
	C2781.082764,727.200745 2768.700439,733.118958 2756.065186,740.064636 
z"/>
<path fill="#B4B9BB" opacity="1.000000" stroke="none" 
	d="
M2167.615723,816.039978 
	C2168.130371,813.006958 2168.645020,809.973938 2169.419678,805.409241 
	C2172.868896,809.170532 2172.147217,812.212891 2170.764160,815.462280 
	C2168.802979,815.920654 2168.209229,815.980347 2167.615723,816.039978 
z"/>
<path fill="#FFFFFF" opacity="1.000000" stroke="none" 
	d="
M2167.565186,817.040039 
	C2168.209229,815.980347 2168.802979,815.920654 2170.283691,815.987183 
	C2171.212158,819.146179 2169.867676,819.549927 2167.565186,817.040039 
z"/>
<path fill="#E9EFF3" opacity="1.000000" stroke="none" 
	d="
M1801.114746,787.994568 
	C1806.251831,788.840332 1809.374756,790.829407 1809.604248,795.690002 
	C1809.825317,800.371948 1806.761353,805.992249 1801.881104,807.332581 
	C1796.330444,808.856934 1790.419312,809.068237 1782.973022,810.080322 
	C1785.241211,801.627075 1786.992310,795.100769 1788.911133,787.949402 
	C1793.114990,787.949402 1796.696289,787.949402 1801.114746,787.994568 
z"/>
<path fill="#F4F7F7" opacity="1.000000" stroke="none" 
	d="
M1192.044922,789.343384 
	C1198.460205,792.138855 1200.281494,796.750122 1200.137817,802.563232 
	C1199.845337,814.413513 1196.976318,825.560242 1190.937378,835.779785 
	C1183.486572,848.388306 1175.408325,851.801941 1159.222778,848.980530 
	C1164.873413,828.840027 1170.502075,808.777710 1176.399414,787.757812 
	C1181.544678,788.197144 1186.412476,788.612854 1192.044922,789.343384 
z"/>
<path fill="#F2F5F6" opacity="1.000000" stroke="none" 
	d="
M210.831406,834.847534 
	C214.626938,823.409058 217.716827,812.554626 222.085983,802.242249 
	C224.042908,797.623413 227.986954,793.270081 232.127747,790.358582 
	C234.816010,788.468323 239.797791,788.340454 243.193802,789.332886 
	C247.510117,790.594299 248.284897,795.246521 247.625595,799.377686 
	C245.310013,813.886780 241.155136,827.804810 233.376785,840.431335 
	C232.513199,841.833130 231.433456,843.125549 230.318268,844.344482 
	C225.485657,849.627014 220.036880,851.543762 215.354141,849.375366 
	C209.119766,846.488525 209.824966,841.051147 210.831406,834.847534 
z"/>
<path fill="#E9EFF3" opacity="1.000000" stroke="none" 
	d="
M1635.559937,827.388550 
	C1635.542114,831.251709 1633.947754,832.452148 1631.178223,832.443604 
	C1629.192749,832.437500 1627.206909,832.489563 1625.221313,832.493103 
	C1620.637451,832.501282 1616.053589,832.495728 1609.766235,832.495728 
	C1618.293213,817.245789 1626.104492,803.275940 1633.915649,789.306152 
	C1636.645020,801.873108 1635.444702,814.178955 1635.559937,827.388550 
z"/>
</svg>